<svg width="98" height="40" viewBox="0 0 98 40" fill="none" xmlns="http://www.w3.org/2000/svg">
<g clip-path="url(#clip0_1_15)">
<path d="M40.8002 40L57.8844 14.2011V40H65.8414V0H57.8844L30.9709 40H40.8002Z" fill="#2883F7"/>
<path fill-rule="evenodd" clip-rule="evenodd" d="M76.1388 40H68.4158V0H87.1381C90.7266 0.15873 97.9035 2.7619 97.9035 11.9048C97.9035 21.0476 90.7266 24.2857 87.1381 24.7619H76.1388V40ZM76.1075 17.6501V6.89295H86.4341C87.9831 6.96613 91.0811 8.16625 91.0811 12.3813C91.0811 16.5963 87.9831 17.6501 86.4341 17.6501H76.1075Z" fill="#2883F7"/>
<path fill-rule="evenodd" clip-rule="evenodd" d="M19.2234 0V0.00715267C8.55853 0.29334 0 9.12664 0 19.9816C0 31.0171 8.84566 39.9631 19.7574 39.9631C23.8569 39.9631 27.6647 38.7005 30.8215 36.5386V39.9631H39.5147V20.0071V19.9816V19.956V15.5856H30.8215H30.0975H18.078V24.3775H30.0975C28.3994 28.4578 24.4092 31.3225 19.7574 31.3225C13.5643 31.3225 8.54371 26.245 8.54371 19.9816C8.54371 13.8992 13.2782 8.93519 19.2234 8.65332V8.64068H49.1264L55.2671 0H19.2234Z" fill="#2883F7"/>
<path d="M44.8545 24.3019V32.9426H63.0099V24.3019H44.8545Z" fill="#2883F7"/>
</g>
<defs>
<clipPath id="clip0_1_15">
<rect width="98" height="40" fill="white"/>
</clipPath>
</defs>
</svg>
