<svg width="20" height="20" viewBox="0 0 20 20" fill="none" xmlns="http://www.w3.org/2000/svg">
<path d="M15.9825 16.7249C15.2838 15.7998 14.3798 15.0496 13.3417 14.5333C12.3036 14.0171 11.1599 13.7489 10.0005 13.7499C8.84115 13.7489 7.69739 14.0171 6.65932 14.5333C5.62125 15.0496 4.71724 15.7998 4.0185 16.7249M15.9825 16.7249C17.346 15.5121 18.3076 13.9135 18.7417 12.141C19.1758 10.3686 19.0608 8.50604 18.412 6.80043C17.7632 5.09482 16.6112 3.62673 15.1089 2.59085C13.6066 1.55497 11.8248 1.00024 10 1.00024C8.17516 1.00024 6.39343 1.55497 4.89111 2.59085C3.38878 3.62673 2.23683 5.09482 1.58804 6.80043C0.939242 8.50604 0.824253 10.3686 1.25832 12.141C1.69239 13.9135 2.655 15.5121 4.0185 16.7249M15.9825 16.7249C14.3365 18.1931 12.2061 19.0031 10.0005 18.9999C7.79453 19.0033 5.66474 18.1934 4.0185 16.7249M13.0005 7.74995C13.0005 8.5456 12.6844 9.30866 12.1218 9.87127C11.5592 10.4339 10.7962 10.7499 10.0005 10.7499C9.20485 10.7499 8.44179 10.4339 7.87918 9.87127C7.31657 9.30866 7.0005 8.5456 7.0005 7.74995C7.0005 6.9543 7.31657 6.19124 7.87918 5.62863C8.44179 5.06602 9.20485 4.74995 10.0005 4.74995C10.7962 4.74995 11.5592 5.06602 12.1218 5.62863C12.6844 6.19124 13.0005 6.9543 13.0005 7.74995Z" stroke="#64748B" stroke-width="1.5" stroke-linecap="round" stroke-linejoin="round"/>
</svg>
