<svg width="20" height="14" viewBox="0 0 20 14" fill="none" xmlns="http://www.w3.org/2000/svg">
<path d="M19.5798 11.09L18.4898 3.43C18.2098 1.46 16.5198 0 14.5298 0H5.46982C3.47982 0 1.78982 1.46 1.50982 3.43L0.419821 11.09C0.199821 12.63 1.38982 14 2.93982 14C3.61982 14 4.25982 13.73 4.73982 13.25L6.99982 11H12.9998L15.2498 13.25C15.7298 13.73 16.3798 14 17.0498 14C18.6098 14 19.7998 12.63 19.5798 11.09ZM8.99982 6H6.99982V8H5.99982V6H3.99982V5H5.99982V3H6.99982V5H8.99982V6ZM12.9998 5C12.4498 5 11.9998 4.55 11.9998 4C11.9998 3.45 12.4498 3 12.9998 3C13.5498 3 13.9998 3.45 13.9998 4C13.9998 4.55 13.5498 5 12.9998 5ZM14.9998 8C14.4498 8 13.9998 7.55 13.9998 7C13.9998 6.45 14.4498 6 14.9998 6C15.5498 6 15.9998 6.45 15.9998 7C15.9998 7.55 15.5498 8 14.9998 8Z" fill="white"/>
</svg>
