<svg width="25" height="24" viewBox="0 0 25 24" fill="none" xmlns="http://www.w3.org/2000/svg">
<g clip-path="url(#clip0_4_2)">
<path d="M2.55615 17H22.5562V19H2.55615V17ZM3.70615 12.95L4.55615 11.47L5.40615 12.95L6.70615 12.2L5.85615 10.72H7.55615V9.22H5.85615L6.70615 7.75L5.40615 7L4.55615 8.47L3.70615 7L2.40615 7.75L3.25615 9.22H1.55615V10.72H3.25615L2.40615 12.2L3.70615 12.95ZM10.4062 12.2L11.7062 12.95L12.5562 11.47L13.4062 12.95L14.7062 12.2L13.8562 10.72H15.5562V9.22H13.8562L14.7062 7.75L13.4062 7L12.5562 8.47L11.7062 7L10.4062 7.75L11.2562 9.22H9.55615V10.72H11.2562L10.4062 12.2ZM23.5562 9.22H21.8562L22.7062 7.75L21.4062 7L20.5562 8.47L19.7062 7L18.4062 7.75L19.2562 9.22H17.5562V10.72H19.2562L18.4062 12.2L19.7062 12.95L20.5562 11.47L21.4062 12.95L22.7062 12.2L21.8562 10.72H23.5562V9.22Z" fill="#64748B"/>
</g>
<defs>
<clipPath id="clip0_4_2">
<rect width="24" height="24" fill="white" transform="translate(0.556152)"/>
</clipPath>
</defs>
</svg>
