<svg width="22" height="22" viewBox="0 0 22 22" fill="none" xmlns="http://www.w3.org/2000/svg">
<path d="M11 20.625C16.3157 20.625 20.625 16.3157 20.625 11C20.625 5.68426 16.3157 1.375 11 1.375C5.68426 1.375 1.375 5.68426 1.375 11C1.375 16.3157 5.68426 20.625 11 20.625Z" fill="url(#paint0_linear_4_20)"/>
<path d="M15.8033 7.01855C15.8889 6.46478 15.3625 6.02769 14.8701 6.24387L5.06331 10.5495C4.71022 10.7046 4.73605 11.2395 5.10226 11.3561L7.12463 12.0001C7.51066 12.123 7.92859 12.0594 8.26567 11.8266L12.8253 8.67646C12.9628 8.58144 13.1127 8.77697 12.9952 8.89804L9.71307 12.2819C9.39469 12.6102 9.45787 13.1664 9.84087 13.4066L13.5156 15.711C13.9277 15.9694 14.4579 15.7098 14.535 15.2117L15.8033 7.01855Z" fill="white"/>
<defs>
<linearGradient id="paint0_linear_4_20" x1="11" y1="1.375" x2="11" y2="20.625" gradientUnits="userSpaceOnUse">
<stop stop-color="#37BBFE"/>
<stop offset="1" stop-color="#007DBB"/>
</linearGradient>
</defs>
</svg>
