<svg width="17" height="22" viewBox="0 0 17 22" fill="none" xmlns="http://www.w3.org/2000/svg">
<path d="M12.3061 5C12.3061 5.99456 11.911 6.94839 11.2078 7.65165C10.5045 8.35491 9.55069 8.75 8.55613 8.75C7.56157 8.75 6.60774 8.35491 5.90448 7.65165C5.20122 6.94839 4.80613 5.99456 4.80613 5C4.80613 4.00544 5.20122 3.05161 5.90448 2.34835C6.60774 1.64509 7.56157 1.25 8.55613 1.25C9.55069 1.25 10.5045 1.64509 11.2078 2.34835C11.911 3.05161 12.3061 4.00544 12.3061 5ZM1.05713 19.118C1.08926 17.1504 1.89347 15.2742 3.29631 13.894C4.69915 12.5139 6.58822 11.7405 8.55613 11.7405C10.524 11.7405 12.4131 12.5139 13.816 13.894C15.2188 15.2742 16.023 17.1504 16.0551 19.118C13.7025 20.1968 11.1443 20.7535 8.55613 20.75C5.88013 20.75 3.34013 20.166 1.05713 19.118Z" stroke="#64748B" stroke-width="1.5" stroke-linecap="round" stroke-linejoin="round"/>
</svg>