<svg width="20" height="20" viewBox="0 0 20 20" fill="none" xmlns="http://www.w3.org/2000/svg">
<path fill-rule="evenodd" clip-rule="evenodd" d="M10.0004 19.5999C12.5465 19.5999 14.9883 18.5885 16.7886 16.7881C18.589 14.9878 19.6004 12.546 19.6004 9.9999C19.6004 7.45382 18.589 5.01203 16.7886 3.21168C14.9883 1.41133 12.5465 0.399902 10.0004 0.399902C7.45431 0.399902 5.01252 1.41133 3.21217 3.21168C1.41182 5.01203 0.400391 7.45382 0.400391 9.9999C0.400391 12.546 1.41182 14.9878 3.21217 16.7881C5.01252 18.5885 7.45431 19.5999 10.0004 19.5999ZM7.93639 6.6639C7.76578 6.50493 7.54013 6.41838 7.30696 6.42249C7.0738 6.42661 6.85134 6.52106 6.68644 6.68596C6.52155 6.85085 6.42709 7.07331 6.42298 7.30648C6.41887 7.53964 6.50541 7.76529 6.66439 7.9359L8.72839 9.9999L6.66439 12.0639C6.57597 12.1463 6.50504 12.2457 6.45585 12.3561C6.40666 12.4665 6.38021 12.5856 6.37808 12.7065C6.37595 12.8273 6.39818 12.9474 6.44344 13.0594C6.48871 13.1715 6.55608 13.2733 6.64154 13.3587C6.72701 13.4442 6.82881 13.5116 6.94087 13.5569C7.05294 13.6021 7.17297 13.6243 7.29382 13.6222C7.41466 13.6201 7.53384 13.5936 7.64424 13.5444C7.75464 13.4952 7.854 13.4243 7.93639 13.3359L10.0004 11.2719L12.0644 13.3359C12.1468 13.4243 12.2461 13.4952 12.3565 13.5444C12.4669 13.5936 12.5861 13.6201 12.707 13.6222C12.8278 13.6243 12.9478 13.6021 13.0599 13.5569C13.172 13.5116 13.2738 13.4442 13.3592 13.3587C13.4447 13.2733 13.5121 13.1715 13.5573 13.0594C13.6026 12.9474 13.6248 12.8273 13.6227 12.7065C13.6206 12.5856 13.5941 12.4665 13.5449 12.3561C13.4957 12.2457 13.4248 12.1463 13.3364 12.0639L11.2724 9.9999L13.3364 7.9359C13.4954 7.76529 13.5819 7.53964 13.5778 7.30648C13.5737 7.07331 13.4792 6.85085 13.3143 6.68596C13.1494 6.52106 12.927 6.42661 12.6938 6.42249C12.4607 6.41838 12.235 6.50493 12.0644 6.6639L10.0004 8.7279L7.93639 6.6639Z" fill="white"/>
</svg>
