<svg width="20" height="20" viewBox="0 0 20 20" fill="none" xmlns="http://www.w3.org/2000/svg">
<path fill-rule="evenodd" clip-rule="evenodd" d="M10.0004 19.5999C12.5465 19.5999 14.9883 18.5885 16.7886 16.7881C18.589 14.9878 19.6004 12.546 19.6004 9.9999C19.6004 7.45382 18.589 5.01203 16.7886 3.21168C14.9883 1.41133 12.5465 0.399902 10.0004 0.399902C7.45431 0.399902 5.01252 1.41133 3.21217 3.21168C1.41182 5.01203 0.400391 7.45382 0.400391 9.9999C0.400391 12.546 1.41182 14.9878 3.21217 16.7881C5.01252 18.5885 7.45431 19.5999 10.0004 19.5999ZM10.9004 3.9999C10.9004 3.76121 10.8056 3.53229 10.6368 3.36351C10.468 3.19472 10.2391 3.0999 10.0004 3.0999C9.7617 3.0999 9.53278 3.19472 9.364 3.36351C9.19521 3.53229 9.10039 3.76121 9.10039 3.9999V9.9999C9.10039 10.4967 9.50359 10.8999 10.0004 10.8999H14.8004C15.0391 10.8999 15.268 10.8051 15.4368 10.6363C15.6056 10.4675 15.7004 10.2386 15.7004 9.9999C15.7004 9.76121 15.6056 9.53229 15.4368 9.36351C15.268 9.19472 15.0391 9.0999 14.8004 9.0999H10.9004V3.9999Z" fill="white"/>
</svg>
