<svg width="18" height="20" viewBox="0 0 18 20" fill="none" xmlns="http://www.w3.org/2000/svg">
<path fill-rule="evenodd" clip-rule="evenodd" d="M2.39961 0.399903C1.92222 0.399903 1.46438 0.589546 1.12682 0.927111C0.789252 1.26468 0.599609 1.72251 0.599609 2.1999V17.7999C0.599609 18.2773 0.789252 18.7351 1.12682 19.0727C1.46438 19.4103 1.92222 19.5999 2.39961 19.5999H15.5996C16.077 19.5999 16.5348 19.4103 16.8724 19.0727C17.21 18.7351 17.3996 18.2773 17.3996 17.7999V7.1451C17.3992 6.66787 17.2093 6.21035 16.8716 5.8731L11.9276 0.926703C11.7602 0.75944 11.5615 0.626818 11.3429 0.536424C11.1242 0.44603 10.8898 0.399639 10.6532 0.399903H2.39961ZM5.09961 10.5999C4.86091 10.5999 4.632 10.6947 4.46321 10.8635C4.29443 11.0323 4.19961 11.2612 4.19961 11.4999C4.19961 11.7386 4.29443 11.9675 4.46321 12.1363C4.632 12.3051 4.86091 12.3999 5.09961 12.3999H12.8996C13.1383 12.3999 13.3672 12.3051 13.536 12.1363C13.7048 11.9675 13.7996 11.7386 13.7996 11.4999C13.7996 11.2612 13.7048 11.0323 13.536 10.8635C13.3672 10.6947 13.1383 10.5999 12.8996 10.5999H5.09961ZM5.09961 14.1999C4.86091 14.1999 4.632 14.2947 4.46321 14.4635C4.29443 14.6323 4.19961 14.8612 4.19961 15.0999C4.19961 15.3386 4.29443 15.5675 4.46321 15.7363C4.632 15.9051 4.86091 15.9999 5.09961 15.9999H12.8996C13.1383 15.9999 13.3672 15.9051 13.536 15.7363C13.7048 15.5675 13.7996 15.3386 13.7996 15.0999C13.7996 14.8612 13.7048 14.6323 13.536 14.4635C13.3672 14.2947 13.1383 14.1999 12.8996 14.1999H5.09961Z" fill="white"/>
</svg>
