<svg width="20" height="20" viewBox="0 0 20 20" fill="none" xmlns="http://www.w3.org/2000/svg">
<path d="M9.99023 0C4.47023 0 -0.00976562 4.48 -0.00976562 10C-0.00976562 15.52 4.47023 20 9.99023 20C15.5102 20 19.9902 15.52 19.9902 10C19.9902 4.48 15.5102 0 9.99023 0ZM13.6002 6.34C14.6702 6.34 15.5302 7.2 15.5302 8.27C15.5302 9.34 14.6702 10.2 13.6002 10.2C12.5302 10.2 11.6702 9.34 11.6702 8.27C11.6602 7.2 12.5302 6.34 13.6002 6.34ZM7.60023 4.76C8.90024 4.76 9.96023 5.82 9.96023 7.12C9.96023 8.42 8.90024 9.48 7.60023 9.48C6.30023 9.48 5.24023 8.42 5.24023 7.12C5.24023 5.81 6.29024 4.76 7.60023 4.76ZM7.60023 13.89V17.64C5.20023 16.89 3.30023 15.04 2.46023 12.68C3.51023 11.56 6.13023 10.99 7.60023 10.99C8.13023 10.99 8.80023 11.07 9.50023 11.21C7.86023 12.08 7.60023 13.23 7.60023 13.89ZM9.99023 18C9.72023 18 9.46023 17.99 9.20023 17.96V13.89C9.20023 12.47 12.1402 11.76 13.6002 11.76C14.6702 11.76 16.5202 12.15 17.4402 12.91C16.2702 15.88 13.3802 18 9.99023 18Z" fill="white"/>
</svg>
